HIERARCHY
ROOT hip
{
  OFFSET 0 0 0
  CHANNELS 6 Xposition Yposition Zposition Zrotation Yrotation Xrotation
  JOINT abdomen
  {
    OFFSET 0 20.6881 -0.73152
    CHANNELS 3 Zrotation Xrotation Yrotation
    JOINT chest
    {
      OFFSET 0 11.7043 -0.48768
      CHANNELS 3 Zrotation Xrotation Yrotation
      JOINT neck
      {
        OFFSET 0 22.1894 -2.19456
        CHANNELS 3 Zrotation Xrotation Yrotation
        JOINT head
        {
          OFFSET -0.24384 7.07133 1.2192
          CHANNELS 3 Zrotation Xrotation Yrotation
          JOINT leftEye
          {
            OFFSET 4.14528 8.04674 8.04672
            CHANNELS 3 Zrotation Xrotation Yrotation
            End Site
            {
              OFFSET 1 0 0
            }
          }
          JOINT rightEye
          {
            OFFSET -3.6576 8.04674 8.04672
            CHANNELS 3 Zrotation Xrotation Yrotation
            End Site
            {
              OFFSET 1 0 0
            }
          }
        }
      }
      JOINT rCollar
      {
        OFFSET -2.68224 19.2634 -4.8768
        CHANNELS 3 Zrotation Xrotation Yrotation
        JOINT rShldr
        {
          OFFSET -8.77824 -1.95073 1.46304
          CHANNELS 3 Zrotation Xrotation Yrotation
          JOINT rForeArm
          {
            OFFSET -28.1742 -1.7115 0.48768
            CHANNELS 3 Zrotation Xrotation Yrotation
            JOINT rHand
            {
              OFFSET -22.5879 0.773209 7.07136
              CHANNELS 3 Zrotation Xrotation Yrotation
              JOINT rThumb1
              {
                OFFSET -1.2192 -0.487915 3.41376
                CHANNELS 3 Zrotation Xrotation Yrotation
                JOINT rThumb2
                {
                  OFFSET -3.37035 -0.52449 3.41376
                  CHANNELS 3 Zrotation Xrotation Yrotation
                  End Site
                  {
                    OFFSET -1.78271 -1.18214 1.43049
                  }
                }
              }
              JOINT rIndex1
              {
                OFFSET -7.75947 0.938293 5.60832
                CHANNELS 3 Zrotation Xrotation Yrotation
                JOINT rIndex2
                {
                  OFFSET -2.54057 -0.884171 1.56538
                  CHANNELS 3 Zrotation Xrotation Yrotation
                  End Site
                  {
                    OFFSET -1.62519 -0.234802 1.16502
                  }
                }
              }
              JOINT rMid1
              {
                OFFSET -8.24714 1.18213 3.41376
                CHANNELS 3 Zrotation Xrotation Yrotation
                JOINT rMid2
                {
                  OFFSET -3.10165 -0.590103 1.0647
                  CHANNELS 3 Zrotation Xrotation Yrotation
                  End Site
                  {
                    OFFSET -2.48547 -0.328903 0.83742
                  }
                }
              }
              JOINT rRing1
              {
                OFFSET -8.82822 0.546677 1.51678
                CHANNELS 3 Zrotation Xrotation Yrotation
                JOINT rRing2
                {
                  OFFSET -2.60934 -0.819778 -0.0198488
                  CHANNELS 3 Zrotation Xrotation Yrotation
                  End Site
                  {
                    OFFSET -2.33842 -0.294052 0.168128
                  }
                }
              }
              JOINT rPinky1
              {
                OFFSET -8.27202 -0.0477905 -0.4584
                CHANNELS 3 Zrotation Xrotation Yrotation
                JOINT rPinky2
                {
                  OFFSET -1.82734 -0.647385 -0.700984
                  CHANNELS 3 Zrotation Xrotation Yrotation
                  End Site
                  {
                    OFFSET -1.69225 -0.51767 -0.607171
                  }
                }
              }
            }
          }
        }
      }
      JOINT lCollar
      {
        OFFSET 2.68224 19.2634 -4.8768
        CHANNELS 3 Zrotation Xrotation Yrotation
        JOINT lShldr
        {
          OFFSET 8.77824 -1.95073 1.46304
          CHANNELS 3 Zrotation Xrotation Yrotation
          JOINT lForeArm
          {
            OFFSET 28.1742 -1.7115 0.48768
            CHANNELS 3 Zrotation Xrotation Yrotation
            JOINT lHand
            {
              OFFSET 22.5879 0.773209 7.07136
              CHANNELS 3 Zrotation Xrotation Yrotation
              JOINT lThumb1
              {
                OFFSET 1.2192 -0.487915 3.41376
                CHANNELS 3 Zrotation Xrotation Yrotation
                JOINT lThumb2
                {
                  OFFSET 3.37035 -0.52449 3.41376
                  CHANNELS 3 Zrotation Xrotation Yrotation
                  End Site
                  {
                    OFFSET 1.78271 -1.18214 1.43049
                  }
                }
              }
              JOINT lIndex1
              {
                OFFSET 7.75947 0.938293 5.60832
                CHANNELS 3 Zrotation Xrotation Yrotation
                JOINT lIndex2
                {
                  OFFSET 2.54057 -0.884171 1.56538
                  CHANNELS 3 Zrotation Xrotation Yrotation
                  End Site
                  {
                    OFFSET 1.62519 -0.234802 1.16502
                  }
                }
              }
              JOINT lMid1
              {
                OFFSET 8.24714 1.18213 3.41376
                CHANNELS 3 Zrotation Xrotation Yrotation
                JOINT lMid2
                {
                  OFFSET 3.10165 -0.590103 1.0647
                  CHANNELS 3 Zrotation Xrotation Yrotation
                  End Site
                  {
                    OFFSET 2.48547 -0.328903 0.83742
                  }
                }
              }
              JOINT lRing1
              {
                OFFSET 8.82822 0.546677 1.51678
                CHANNELS 3 Zrotation Xrotation Yrotation
                JOINT lRing2
                {
                  OFFSET 2.60934 -0.819778 -0.0198488
                  CHANNELS 3 Zrotation Xrotation Yrotation
                  End Site
                  {
                    OFFSET 2.33842 -0.294052 0.168128
                  }
                }
              }
              JOINT lPinky1
              {
                OFFSET 8.27202 -0.0477905 -0.4584
                CHANNELS 3 Zrotation Xrotation Yrotation
                JOINT lPinky2
                {
                  OFFSET 1.82734 -0.647385 -0.700984
                  CHANNELS 3 Zrotation Xrotation Yrotation
                  End Site
                  {
                    OFFSET 1.69225 -0.51767 -0.607171
                  }
                }
              }
            }
          }
        }
      }
    }
  }
  JOINT rButtock
  {
    OFFSET -8.77824 4.35084 1.2192
    CHANNELS 3 Zrotation Xrotation Yrotation
    JOINT rThigh
    {
      OFFSET 0 -1.70687 -2.19456
      CHANNELS 3 Zrotation Xrotation Yrotation
      JOINT rShin
      {
        OFFSET 0 -36.8199 0.73152
        CHANNELS 3 Zrotation Xrotation Yrotation
        JOINT rFoot
        {
          OFFSET 0.73152 -45.1104 -5.12064
          CHANNELS 3 Zrotation Xrotation Yrotation
          End Site
          {
            OFFSET -1.1221 -3.69964 12.103
          }
        }
      }
    }
  }
  JOINT lButtock
  {
    OFFSET 8.77824 4.35084 1.2192
    CHANNELS 3 Zrotation Xrotation Yrotation
    JOINT lThigh
    {
      OFFSET 0 -1.70687 -2.19456
      CHANNELS 3 Zrotation Xrotation Yrotation
      JOINT lShin
      {
        OFFSET 0 -36.8199 0.73152
        CHANNELS 3 Zrotation Xrotation Yrotation
        JOINT lFoot
        {
          OFFSET -0.73152 -45.1104 -5.12064
          CHANNELS 3 Zrotation Xrotation Yrotation
          End Site
          {
            OFFSET 1.1221 -3.69964 12.103
          }
        }
      }
    }
  }
}
MOTION
Frames:	9
Frame Time:	0.00833333
-31.0424 82.9796 54.6948 -178.007 23.8523 -177.254 -2.21068 11.8723 2.8067 2.20806 -6.29054 0.859038 -10.995 0.04668 -7.54293 16.536 18.9246 -10.6921 -0.0 0.0 0.0 -0.0 0.0 0.0 -2.74357e-14 -1.08532e-13 2.08584e-13 78.2804 2.07856 -4.59952 -15.4345 -8.17218 28.4876 -0.0573074 6.81448 0.962301 -2.93004e-10 9.46574e-10 1.01338e-09 -4.99527e-10 1.63895e-09 1.75506e-09 -2.93e-10 9.46571e-10 1.01338e-09 7.73091 5.47488 0.417314 -2.93002e-10 9.46569e-10 1.01339e-09 2.90554 0.965183 0.102902 -2.93e-10 9.4657e-10 1.01339e-09 10.2786 0.731801 0.0259123 -2.93008e-10 9.46573e-10 1.01339e-09 2.22167 -0.733487 -0.20892 -2.737e-14 -1.0854e-13 2.08285e-13 -80.4514 10.2066 6.12841 13.6969 -6.71251 -24.9459 0.0995895 8.96687 -1.2707 -1.01066e-09 -1.25662e-09 -4.78324e-10 -1.75251e-09 -2.17163e-09 -8.16997e-10 -1.01067e-09 -1.25662e-09 -4.78314e-10 -7.73091 5.47488 -0.417314 -1.01066e-09 -1.25663e-09 -4.78327e-10 -2.90554 0.965183 -0.102902 -1.01066e-09 -1.25662e-09 -4.78326e-10 -10.2786 0.731801 -0.0259123 -1.01065e-09 -1.25662e-09 -4.78327e-10 -2.22167 -0.733487 0.20892 -2.03217e-16 0.0 -3.88251e-19 -1.58062 -16.1623 -14.4026 -0.319084 38.7624 0.64504 0.821919 -17.4502 3.22648 2.03217e-16 0.0 3.88251e-19 -1.09383 -14.5184 -0.436789 0.178014 31.787 -0.501179 0.204548 -15.8255 -0.907948
-30.9542 82.9694 54.9659 -178.071 23.1543 -177.19 -2.58893 12.0412 2.56655 2.39024 -6.35363 0.789369 -10.9672 0.0242864 -7.57 16.6422 18.7751 -10.7692 -0.0 0.0 0.0 -0.0 0.0 0.0 -3.46308e-14 -1.54252e-13 2.38641e-13 78.5471 1.68307 -4.49521 -15.4456 -8.18208 28.5107 -0.057876 6.84877 0.967188 -3.36214e-10 1.07222e-09 1.59876e-09 -5.70888e-10 1.85669e-09 2.76797e-09 -3.3621e-10 1.07221e-09 1.59876e-09 7.73091 5.47488 0.417314 -3.36212e-10 1.07221e-09 1.59877e-09 2.90554 0.965183 0.102902 -3.3621e-10 1.07221e-09 1.59877e-09 10.2786 0.731801 0.0259123 -3.36219e-10 1.07221e-09 1.59877e-09 2.22167 -0.733487 -0.20892 -3.45485e-14 -1.54261e-13 2.38343e-13 -80.2117 10.2509 5.91099 13.6637 -6.68627 -24.8798 0.102216 9.08079 -1.28712 -1.16395e-09 -1.69843e-09 -7.5451e-10 -2.01999e-09 -2.93645e-09 -1.29244e-09 -1.16395e-09 -1.69844e-09 -7.54501e-10 -7.73091 5.47488 -0.417314 -1.16395e-09 -1.69844e-09 -7.5451e-10 -2.90554 0.965183 -0.102902 -1.16395e-09 -1.69844e-09 -7.5451e-10 -10.2786 0.731801 -0.0259123 -1.16394e-09 -1.69843e-09 -7.5451e-10 -2.22167 -0.733487 0.20892 -2.03217e-16 0.0 -3.88251e-19 -2.29704 -16.8977 -15.6026 -0.342281 39.8497 0.661749 1.13578 -16.9743 4.08645 2.03217e-16 0.0 3.88251e-19 -0.936719 -14.681 -0.35301 0.173366 31.5491 -0.489751 -0.143957 -15.8531 -1.90593
-30.857 83.0032 55.2121 -178.16 22.5387 -177.191 -3.04083 12.2179 2.37376 2.57412 -6.44967 0.731094 -11.0521 0.0597414 -7.61774 16.9667 18.6614 -10.8851 -0.0 0.0 0.0 -0.0 0.0 0.0 -2.16169e-14 -1.57024e-13 1.18409e-13 78.802 1.30443 -4.39729 -15.4267 -8.16531 28.4714 -0.0590634 6.91926 0.977239 2.39493e-10 -2.61414e-10 1.30152e-09 4.22731e-10 -4.52682e-10 2.24868e-09 2.39497e-10 -2.61418e-10 1.30153e-09 7.73091 5.47488 0.417314 2.39494e-10 -2.61419e-10 1.30153e-09 2.90554 0.965183 0.102902 2.39498e-10 -2.61418e-10 1.30153e-09 10.2786 0.731801 0.0259123 2.39488e-10 -2.61415e-10 1.30154e-09 2.22167 -0.733487 -0.20892 -2.15545e-14 -1.5703e-13 1.18126e-13 -79.9751 10.3721 5.71729 13.6464 -6.67257 -24.8454 0.104333 9.16987 -1.29998 -5.16596e-10 -1.24977e-09 -1.18034e-09 -9.03963e-10 -2.16504e-09 -2.03536e-09 -5.16604e-10 -1.24977e-09 -1.18033e-09 -7.73091 5.47488 -0.417314 -5.16598e-10 -1.24977e-09 -1.18034e-09 -2.90554 0.965183 -0.102902 -5.16602e-10 -1.24977e-09 -1.18034e-09 -10.2786 0.731801 -0.0259123 -5.16592e-10 -1.24977e-09 -1.18034e-09 -2.22167 -0.733487 0.20892 -2.03217e-16 0.0 -3.88251e-19 -3.13474 -17.6968 -16.72 -0.37004 41.0898 0.683456 1.45714 -16.6088 4.9656 2.03217e-16 0.0 3.88251e-19 -0.8899 -14.8448 -0.330495 0.168199 31.296 -0.477818 -0.477619 -15.7045 -2.89627
-30.8027 83.0695 55.4165 -178.464 21.9057 -177.299 -3.55226 12.4073 2.21591 2.76104 -6.5681 0.681314 -11.211 0.137332 -7.67865 17.4366 18.5632 -11.026 -0.0 0.0 0.0 -0.0 0.0 0.0 3.7027e-15 -1.35669e-13 -1.02647e-13 79.0525 0.943315 -4.29693 -15.3869 -8.12992 28.3885 -0.0606893 7.01359 0.990695 1.24912e-09 -2.59723e-09 4.57046e-10 2.16341e-09 -4.4976e-09 7.78951e-10 1.24912e-09 -2.59723e-09 4.57046e-10 7.73091 5.47488 0.417314 1.24912e-09 -2.59723e-09 4.57049e-10 2.90554 0.965183 0.102902 1.24912e-09 -2.59723e-09 4.57051e-10 10.2786 0.731801 0.0259123 1.24911e-09 -2.59723e-09 4.57059e-10 2.22167 -0.733487 -0.20892 3.72403e-15 -1.35671e-13 -1.02902e-13 -79.7333 10.5539 5.52726 13.6397 -6.66727 -24.8321 0.106313 9.25114 -1.31172 6.77885e-10 -2.28696e-10 -1.73694e-09 1.15726e-09 -4.06446e-10 -3.01028e-09 6.77877e-10 -2.28696e-10 -1.73694e-09 -7.73091 5.47488 -0.417314 6.77882e-10 -2.287e-10 -1.73694e-09 -2.90554 0.965183 -0.102902 6.77876e-10 -2.28697e-10 -1.73694e-09 -10.2786 0.731801 -0.0259123 6.77886e-10 -2.28694e-10 -1.73694e-09 -2.22167 -0.733487 0.20892 -2.03217e-16 0.0 -3.88251e-19 -4.09051 -18.5495 -17.8028 -0.402306 42.456 0.70956 1.79538 -16.2965 5.89411 2.03217e-16 0.0 3.88251e-19 -0.902007 -15.0284 -0.303179 0.163049 31.056 -0.465562 -0.815346 -15.4257 -3.94515
-30.7655 83.1363 55.6543 -178.788 21.3307 -177.333 -4.03966 12.6011 2.091 2.91561 -6.67442 0.639635 -11.3738 0.2245 -7.74054 17.8968 18.461 -11.1657 -0.0 0.0 0.0 -0.0 0.0 0.0 2.59687e-14 -1.06512e-13 -2.98557e-13 79.2945 0.643796 -4.19683 -15.3416 -8.08976 28.2947 -0.0624616 7.11403 1.00503 2.15982e-09 -4.70543e-09 -4.30539e-10 3.73278e-09 -8.14857e-09 -7.64468e-10 2.15982e-09 -4.70543e-09 -4.30541e-10 7.73091 5.47488 0.417314 2.15982e-09 -4.70543e-09 -4.30538e-10 2.90554 0.965183 0.102902 2.15983e-09 -4.70543e-09 -4.30536e-10 10.2786 0.731801 0.0259123 2.15982e-09 -4.70543e-09 -4.30526e-10 2.22167 -0.733487 -0.20892 2.59449e-14 -1.0651e-13 -2.98781e-13 -79.4808 10.7978 5.32763 13.6436 -6.67035 -24.8399 0.106819 9.27245 -1.3148 1.81353e-09 8.08805e-10 -2.15043e-09 3.11794e-09 1.38147e-09 -3.73726e-09 1.81352e-09 8.08807e-10 -2.15043e-09 -7.73091 5.47488 -0.417314 1.81352e-09 8.08803e-10 -2.15043e-09 -2.90554 0.965183 -0.102902 1.81351e-09 8.08807e-10 -2.15043e-09 -10.2786 0.731801 -0.0259123 1.81353e-09 8.08808e-10 -2.15044e-09 -2.22167 -0.733487 0.20892 -2.03217e-16 0.0 -3.88251e-19 -5.10276 -19.395 -18.8006 -0.437404 43.8454 0.737833 2.15921 -15.9479 6.91509 2.03217e-16 0.0 3.88251e-19 -0.946188 -15.1973 -0.301574 0.157838 30.8259 -0.454477 -1.09987 -15.1094 -4.87461
-30.6908 83.1755 55.9016 -178.972 20.8652 -177.288 -4.41954 12.7912 1.99707 3.00257 -6.73413 0.605668 -11.4709 0.28871 -7.7912 18.1924 18.3352 -11.2778 -0.0 0.0 0.0 -0.0 0.0 0.0 2.98218e-14 -8.58773e-14 -3.43351e-13 79.5235 0.449957 -4.09961 -15.3067 -8.05881 28.2225 -0.0640559 7.20283 1.01771 2.43877e-09 -5.35621e-09 -8.57099e-10 4.21246e-09 -9.27607e-09 -1.50483e-09 2.43877e-09 -5.35621e-09 -8.57102e-10 7.73091 5.47488 0.417314 2.43877e-09 -5.35621e-09 -8.57099e-10 2.90554 0.965183 0.102902 2.43878e-09 -5.35621e-09 -8.57097e-10 10.2786 0.731801 0.0259123 2.43877e-09 -5.35621e-09 -8.57086e-10 2.22167 -0.733487 -0.20892 2.97658e-14 -8.58732e-14 -3.4355e-13 -79.2117 11.1052 5.10506 13.658 -6.6818 -24.8686 0.104525 9.18167 -1.30167 2.28436e-09 1.30676e-09 -2.14693e-09 3.93236e-09 2.24086e-09 -3.73639e-09 2.28435e-09 1.30677e-09 -2.14693e-09 -7.73091 5.47488 -0.417314 2.28436e-09 1.30676e-09 -2.14693e-09 -2.90554 0.965183 -0.102902 2.28435e-09 1.30677e-09 -2.14693e-09 -10.2786 0.731801 -0.0259123 2.28436e-09 1.30677e-09 -2.14693e-09 -2.22167 -0.733487 0.20892 -2.03217e-16 0.0 -3.88251e-19 -6.10187 -20.1762 -19.659 -0.473091 45.1549 0.765547 2.54964 -15.4736 8.06974 2.03217e-16 0.0 3.88251e-19 -0.995937 -15.3172 -0.356278 0.152463 30.6023 -0.446043 -1.28405 -14.8502 -5.50936
-30.5777 83.2134 56.1102 -178.985 20.4052 -177.277 -4.6375 12.9756 1.94203 2.98328 -6.71641 0.580833 -11.4684 0.319719 -7.82877 18.2638 18.1494 -11.3611 -0.0 0.0 0.0 -0.0 0.0 0.0 -1.39388e-17 -8.03229e-14 -1.16893e-13 79.7461 0.363893 -3.98559 -15.2775 -8.03293 28.1621 -0.0651531 7.26224 1.0262 1.59628e-09 -3.40651e-09 -4.75575e-10 2.75783e-09 -5.90107e-09 -8.37358e-10 1.59628e-09 -3.40651e-09 -4.75579e-10 7.73091 5.47488 0.417314 1.59628e-09 -3.40651e-09 -4.75575e-10 2.90554 0.965183 0.102902 1.59628e-09 -3.40651e-09 -4.75574e-10 10.2786 0.731801 0.0259123 1.59628e-09 -3.40651e-09 -4.75563e-10 2.22167 -0.733487 -0.20892 -8.62449e-17 -8.03206e-14 -1.17071e-13 -78.9086 11.4983 4.83855 13.6793 -6.69844 -24.9113 0.0979666 8.90912 -1.26233 1.61284e-09 8.77189e-10 -1.39026e-09 2.77733e-09 1.5041e-09 -2.42167e-09 1.61283e-09 8.77191e-10 -1.39026e-09 -7.73091 5.47488 -0.417314 1.61283e-09 8.77186e-10 -1.39026e-09 -2.90554 0.965183 -0.102902 1.61282e-09 8.77191e-10 -1.39026e-09 -10.2786 0.731801 -0.0259123 1.61284e-09 8.77191e-10 -1.39027e-09 -2.22167 -0.733487 0.20892 -2.03217e-16 0.0 -3.88251e-19 -7.06975 -20.8937 -20.3733 -0.509753 46.3922 0.791966 2.99358 -14.7915 9.49061 2.03217e-16 0.0 3.88251e-19 -1.04911 -15.379 -0.490882 0.146928 30.3991 -0.441518 -1.33421 -14.6771 -5.72218
-30.4836 83.2592 56.275 -179.062 20.0299 -177.36 -4.74941 13.1588 1.92426 2.88646 -6.64687 0.564844 -11.4088 0.335413 -7.85928 18.1997 17.9245 -11.4278 -0.0 0.0 0.0 -0.0 0.0 0.0 -5.16202e-14 -8.04079e-14 2.84784e-13 79.9612 0.36537 -3.86005 -15.2486 -8.00731 28.1024 -0.0659806 7.30606 1.03247 3.23892e-11 2.16068e-10 3.74288e-10 5.85734e-11 3.70301e-10 6.46688e-10 3.23915e-11 2.16067e-10 3.74283e-10 7.73091 5.47488 0.417314 3.23883e-11 2.16068e-10 3.74288e-10 2.90554 0.965183 0.102902 3.23924e-11 2.16068e-10 3.74288e-10 10.2786 0.731801 0.0259123 3.23861e-11 2.16069e-10 3.74298e-10 2.22167 -0.733487 -0.20892 -5.17016e-14 -8.04096e-14 2.84625e-13 -78.5775 11.9692 4.54066 13.7086 -6.72132 -24.9701 0.0888791 8.50116 -1.2036 2.27457e-10 -1.03487e-10 -1.14212e-10 3.92031e-10 -1.80558e-10 -2.0174e-10 2.2745e-10 -1.03486e-10 -1.14207e-10 -7.73091 5.47488 -0.417314 2.27449e-10 -1.03493e-10 -1.14215e-10 -2.90554 0.965183 -0.102902 2.27447e-10 -1.03489e-10 -1.14212e-10 -10.2786 0.731801 -0.0259123 2.2746e-10 -1.03488e-10 -1.14222e-10 -2.22167 -0.733487 0.20892 -2.03217e-16 0.0 -3.88251e-19 -8.03082 -21.5791 -20.9651 -0.548159 47.6005 0.818494 3.45594 -13.9677 11.1099 2.03217e-16 0.0 3.88251e-19 -1.11831 -15.4011 -0.683951 0.141207 30.2132 -0.439785 -1.28909 -14.5407 -5.63513
-30.4353 83.2852 56.4257 -179.256 19.6127 -177.452 -4.83708 13.3415 1.92743 2.77777 -6.57564 0.554757 -11.3366 0.345468 -7.88237 18.0677 17.727 -11.4717 -0.0 0.0 0.0 -0.0 0.0 0.0 -9.9565e-14 -7.84551e-14 6.63402e-13 80.1528 0.465015 -3.76309 -15.2347 -7.99504 28.0737 -0.0670338 7.36391 1.04073 -1.45113e-09 3.63534e-09 1.16642e-09 -2.50212e-09 6.28982e-09 2.03001e-09 -1.45113e-09 3.63534e-09 1.16641e-09 7.73091 5.47488 0.417314 -1.45114e-09 3.63534e-09 1.16642e-09 2.90554 0.965183 0.102902 -1.45113e-09 3.63534e-09 1.16642e-09 10.2786 0.731801 0.0259123 -1.45114e-09 3.63534e-09 1.16643e-09 2.22167 -0.733487 -0.20892 -9.96478e-14 -7.84612e-14 6.63256e-13 -78.2477 12.474 4.24857 13.7533 -6.75671 -25.0597 0.0803616 8.07979 -1.14315 -1.11867e-09 -1.04461e-09 1.10018e-09 -1.92579e-09 -1.79716e-09 1.9114e-09 -1.11867e-09 -1.04462e-09 1.10018e-09 -7.73091 5.47488 -0.417314 -1.11867e-09 -1.04462e-09 1.10017e-09 -2.90554 0.965183 -0.102902 -1.11867e-09 -1.04462e-09 1.10017e-09 -10.2786 0.731801 -0.0259123 -1.11866e-09 -1.04462e-09 1.10017e-09 -2.22167 -0.733487 0.20892 -2.03217e-16 0.0 -3.88251e-19 -8.97338 -22.2238 -21.4167 -0.586038 48.7304 0.845062 3.85733 -13.138 12.6718 2.03217e-16 0.0 3.88251e-19 -1.19906 -15.3894 -0.898513 0.135166 30.0158 -0.438777 -1.21373 -14.4179 -5.44761
